<svg width="24" height="24" viewBox="0 0 24 24" fill="none" xmlns="http://www.w3.org/2000/svg">
<path d="M24 18C24 18.7072 23.719 19.3855 23.219 19.8856C22.7189 20.3857 22.0406 20.6667 21.3333 20.6667H16V3.33333H21.3333C22.0406 3.33333 22.7189 3.61429 23.219 4.11438C23.719 4.61448 24 5.29276 24 6V18Z" fill="#ED2939"/>
<path d="M2.66667 3.33333C1.95942 3.33333 1.28115 3.61429 0.781049 4.11438C0.280952 4.61448 0 5.29276 0 6L0 18C0 18.7072 0.280952 19.3855 0.781049 19.8856C1.28115 20.3857 1.95942 20.6667 2.66667 20.6667H8V3.33333H2.66667Z" fill="#002495"/>
<path d="M8 3.33333H16V20.6667H8V3.33333Z" fill="#EEEEEE"/>
</svg>
