<svg width="41" height="41" viewBox="0 0 41 41" fill="none" xmlns="http://www.w3.org/2000/svg">
<circle cx="20.0487" cy="20.0487" r="20.0487" fill="#FF8C00"/>
<path d="M18.7763 17.9683L15.5304 21.2064C13.9816 19.8095 10.8451 16.6318 10.2477 15.9365C9.48394 15.0476 9.22851 13.9683 9.29219 12.7619C9.34866 11.6919 10.1416 10.4551 10.6296 9.8413L18.7763 17.9683Z" fill="white"/>
<path d="M30.5175 10.5179C28.789 8.79369 25.5388 9.24053 23.2578 11.516C21.3698 13.3993 20.7377 15.9452 21.556 17.7443L10.2469 29.0159L11.9017 30.6667L20.0485 22.5397L28.0043 30.4127L29.6591 28.8254L21.7033 20.8889L23.1672 19.4074C24.9756 20.2985 27.5916 19.6807 29.517 17.76C31.798 15.4845 32.2459 12.2422 30.5175 10.5179Z" fill="white"/>
</svg>
