<svg width="41" height="41" viewBox="0 0 41 41" fill="none" xmlns="http://www.w3.org/2000/svg">
<path d="M20.0488 0C31.1214 6.49408e-05 40.0977 8.97627 40.0977 20.0488C40.0976 31.1213 31.1213 40.0976 20.0488 40.0977C8.97627 40.0977 6.4945e-05 31.1214 0 20.0488C0 8.97623 8.97623 0 20.0488 0ZM30.5176 10.5176C28.7892 8.79353 25.5387 9.2404 23.2578 11.5156C21.3699 13.3989 20.7375 15.9451 21.5557 17.7441L10.2471 29.0156L11.9014 30.667L20.0488 22.54L28.0039 30.4131L29.6592 28.8252L21.7031 20.8887L23.167 19.4072C24.9754 20.2983 27.5912 19.6804 29.5166 17.7598C31.7976 15.4843 32.246 12.2418 30.5176 10.5176ZM10.6299 9.84082C10.142 10.4545 9.34856 11.6918 9.29199 12.7617C9.22832 13.9681 9.48429 15.0476 10.248 15.9365C10.8458 16.6321 13.9816 19.8092 15.5303 21.2061L18.7764 17.9688L10.6299 9.84082Z" fill="#FF8C00"/>
</svg>
